<svg width="4978" height="4978" viewBox="0 0 4978 4978" fill="none" xmlns="http://www.w3.org/2000/svg">
<rect width="4978" height="4978" fill="#C4C4C4"/>
<path d="M3041.37 1747H1936.63C1832.07 1747 1747 1832.07 1747 1936.63V3041.37C1747 3145.93 1832.07 3231 1936.63 3231H3041.37C3145.93 3231 3231 3145.93 3231 3041.37V1936.63C3231 1832.07 3145.93 1747 3041.37 1747ZM3143.59 3041.37C3143.59 3097.74 3097.73 3143.59 3041.37 3143.59H1936.63C1880.26 3143.59 1834.41 3097.73 1834.41 3041.37V2881.94L2122.09 2637.16C2132.59 2628.23 2147.91 2628.14 2158.5 2636.94L2338.71 2786.58C2356.09 2801.01 2381.59 2799.83 2397.56 2783.84L2825.74 2355.01C2833.48 2347.25 2842.51 2346.5 2847.21 2346.74C2851.91 2346.98 2860.82 2348.65 2867.73 2357.16L3143.59 2696.83V3041.37H3143.59ZM3143.59 2558.17L2935.58 2302.05C2914.95 2276.65 2884.38 2261.12 2851.69 2259.44C2819.03 2257.79 2787.01 2270.08 2763.89 2293.24L2363.88 2693.86L2214.35 2569.7C2170.99 2533.69 2108.37 2534.07 2065.45 2570.59L1834.41 2767.17V1936.63C1834.41 1880.27 1880.26 1834.41 1936.63 1834.41H3041.37C3097.74 1834.41 3143.59 1880.27 3143.59 1936.63V2558.17Z" fill="#2A324B"/>
<path d="M2214.15 1929.59C2097.94 1929.59 2003.4 2024.13 2003.4 2140.34C2003.4 2256.55 2097.94 2351.1 2214.15 2351.1C2330.36 2351.1 2424.91 2256.55 2424.91 2140.34C2424.91 2024.13 2330.37 1929.59 2214.15 1929.59ZM2214.15 2263.69C2146.14 2263.69 2090.81 2208.35 2090.81 2140.34C2090.81 2072.33 2146.14 2017 2214.15 2017C2282.17 2017 2337.5 2072.33 2337.5 2140.34C2337.5 2208.35 2282.17 2263.69 2214.15 2263.69Z" fill="#2A324B"/>
</svg>
