<svg width="2335" height="932" viewBox="0 0 2335 932" fill="none" xmlns="http://www.w3.org/2000/svg">
<path d="M453.063 695.988C417.962 715.513 405.336 759.796 424.86 794.897C444.385 829.999 488.668 842.625 523.769 823.1C558.871 803.575 571.497 759.292 551.972 724.191C532.449 689.09 488.165 676.463 453.063 695.988ZM508.057 794.854C488.557 805.701 463.955 798.686 453.108 779.186C442.261 759.685 449.276 735.084 468.777 724.237C488.277 713.389 512.878 720.404 523.726 739.905C534.574 759.405 527.558 784.007 508.057 794.854Z" fill="url(#paint0_linear)"/>
<path d="M721.415 546.719C686.313 566.244 673.687 610.527 693.211 645.628C712.736 680.73 757.02 693.356 792.12 673.831C827.221 654.307 839.848 610.023 820.323 574.922C800.799 539.822 756.516 527.194 721.415 546.719ZM776.408 645.585C756.908 656.432 732.307 649.417 721.459 629.917C710.612 610.416 717.627 585.815 737.128 574.968C756.629 564.121 781.23 571.135 792.077 590.636C802.925 610.136 795.909 634.738 776.408 645.585Z" fill="url(#paint1_linear)"/>
<path d="M658.544 96.232C653.816 94.6551 648.673 94.8821 644.103 96.8668L180.841 346.232L146.525 314.462C123.127 293.478 89.0632 289.474 61.438 304.46L14.1237 330.778C6.32317 335.117 3.51723 344.958 7.85625 352.758C12.1953 360.559 22.0357 363.365 29.8362 359.026L77.1505 332.707C92.6957 324.505 111.703 326.844 124.797 338.569L364.929 559.151L366.902 579.32C370.324 604.012 385.405 625.556 407.433 637.223C429.166 648.628 455.097 648.703 476.895 637.422L751.602 484.618C759.402 480.279 762.208 470.439 757.869 462.638C753.53 454.837 743.69 452.031 735.889 456.371L461.181 609.175C448.906 615.607 434.218 615.437 422.094 608.725C410.11 602.098 401.853 590.317 399.708 576.791L398.287 560.937L678.307 364.491C708.963 342.729 722.615 304.035 712.399 267.854L667.341 107.055C666.595 102.118 663.227 97.9722 658.544 96.232ZM681.323 276.819C688.186 299.95 679.157 324.85 659.065 338.209L382.182 531.984L205.734 369.372L642.161 134.934L681.323 276.819Z" fill="url(#paint2_linear)"/>
<path d="M580.736 522.016C557.12 522.016 537.728 516.448 522.56 505.312C507.392 493.984 499.232 477.856 498.08 456.928H558.272C558.848 464.032 560.96 469.216 564.608 472.48C568.256 475.744 572.96 477.376 578.72 477.376C583.904 477.376 588.128 476.128 591.392 473.632C594.848 470.944 596.576 467.296 596.576 462.688C596.576 456.736 593.792 452.128 588.224 448.864C582.656 445.6 573.632 441.952 561.152 437.92C547.904 433.504 537.152 429.28 528.896 425.248C520.832 421.024 513.728 414.976 507.584 407.104C501.632 399.04 498.656 388.576 498.656 375.712C498.656 362.656 501.92 351.52 508.448 342.304C514.976 332.896 524 325.792 535.52 320.992C547.04 316.192 560.096 313.792 574.688 313.792C598.304 313.792 617.12 319.36 631.136 330.496C645.344 341.44 652.928 356.896 653.888 376.864H592.544C592.352 370.72 590.432 366.112 586.784 363.04C583.328 359.968 578.816 358.432 573.248 358.432C569.024 358.432 565.568 359.68 562.88 362.176C560.192 364.672 558.848 368.224 558.848 372.832C558.848 376.672 560.288 380.032 563.168 382.912C566.24 385.6 569.984 388 574.4 390.112C578.816 392.032 585.344 394.528 593.984 397.6C606.848 402.016 617.408 406.432 625.664 410.848C634.112 415.072 641.312 421.12 647.264 428.992C653.408 436.672 656.48 446.464 656.48 458.368C656.48 470.464 653.408 481.312 647.264 490.912C641.312 500.512 632.576 508.096 621.056 513.664C609.728 519.232 596.288 522.016 580.736 522.016ZM821.826 553.984L799.362 520.288C793.026 521.44 786.594 522.016 780.066 522.016C761.058 522.016 743.586 517.6 727.65 508.768C711.714 499.744 699.042 487.36 689.634 471.616C680.418 455.68 675.81 437.728 675.81 417.76C675.81 397.792 680.418 379.936 689.634 364.192C699.042 348.256 711.714 335.872 727.65 327.04C743.586 318.208 761.058 313.792 780.066 313.792C799.266 313.792 816.738 318.208 832.482 327.04C848.418 335.872 860.994 348.256 870.21 364.192C879.426 379.936 884.034 397.792 884.034 417.76C884.034 434.464 880.674 449.92 873.954 464.128C867.234 478.144 858.018 489.856 846.306 499.264L889.218 553.984H821.826ZM733.41 417.76C733.41 433.696 737.538 446.368 745.794 455.776C754.05 464.992 765.474 469.6 780.066 469.6C794.466 469.6 805.794 464.896 814.05 455.488C822.498 446.08 826.722 433.504 826.722 417.76C826.722 401.632 822.498 388.96 814.05 379.744C805.794 370.336 794.466 365.632 780.066 365.632C765.474 365.632 754.05 370.336 745.794 379.744C737.538 388.96 733.41 401.632 733.41 417.76ZM1146.71 316.96V520H1090.27V407.968L1051.96 520H1004.73L966.139 407.104V520H909.691V316.96H977.947L1028.92 448.864L1078.75 316.96H1146.71ZM1307.29 486.88H1235.29L1224.35 520H1165.02L1239.04 316.96H1304.13L1377.85 520H1318.24L1307.29 486.88ZM1293.18 443.68L1271.29 378.016L1249.69 443.68H1293.18ZM1499.07 520L1458.75 445.12H1452.7V520H1396.25V316.96H1485.25C1501.57 316.96 1515.39 319.84 1526.72 325.6C1538.05 331.168 1546.59 338.944 1552.35 348.928C1558.11 358.72 1560.99 369.76 1560.99 382.048C1560.99 395.872 1557.15 408.064 1549.47 418.624C1541.98 428.992 1530.94 436.384 1516.35 440.8L1562.14 520H1499.07ZM1452.7 406.528H1480.64C1488.32 406.528 1494.08 404.704 1497.92 401.056C1501.76 397.408 1503.68 392.128 1503.68 385.216C1503.68 378.688 1501.66 373.6 1497.63 369.952C1493.79 366.112 1488.13 364.192 1480.64 364.192H1452.7V406.528ZM1725.76 553.984L1703.3 520.288C1696.96 521.44 1690.53 522.016 1684 522.016C1665 522.016 1647.52 517.6 1631.59 508.768C1615.65 499.744 1602.98 487.36 1593.57 471.616C1584.36 455.68 1579.75 437.728 1579.75 417.76C1579.75 397.792 1584.36 379.936 1593.57 364.192C1602.98 348.256 1615.65 335.872 1631.59 327.04C1647.52 318.208 1665 313.792 1684 313.792C1703.2 313.792 1720.68 318.208 1736.42 327.04C1752.36 335.872 1764.93 348.256 1774.15 364.192C1783.36 379.936 1787.97 397.792 1787.97 417.76C1787.97 434.464 1784.61 449.92 1777.89 464.128C1771.17 478.144 1761.96 489.856 1750.24 499.264L1793.16 553.984H1725.76ZM1637.35 417.76C1637.35 433.696 1641.48 446.368 1649.73 455.776C1657.99 464.992 1669.41 469.6 1684 469.6C1698.4 469.6 1709.73 464.896 1717.99 455.488C1726.44 446.08 1730.66 433.504 1730.66 417.76C1730.66 401.632 1726.44 388.96 1717.99 379.744C1709.73 370.336 1698.4 365.632 1684 365.632C1669.41 365.632 1657.99 370.336 1649.73 379.744C1641.48 388.96 1637.35 401.632 1637.35 417.76ZM1868.92 316.96V434.752C1868.92 445.696 1871.42 454.144 1876.41 460.096C1881.6 466.048 1889.37 469.024 1899.74 469.024C1910.11 469.024 1917.88 466.048 1923.07 460.096C1928.44 453.952 1931.13 445.504 1931.13 434.752V316.96H1987.58V434.752C1987.58 453.376 1983.64 469.312 1975.77 482.56C1967.9 495.616 1957.15 505.504 1943.52 512.224C1930.08 518.752 1915.1 522.016 1898.59 522.016C1882.08 522.016 1867.29 518.752 1854.24 512.224C1841.37 505.504 1831.2 495.616 1823.71 482.56C1816.41 469.504 1812.76 453.568 1812.76 434.752V316.96H1868.92ZM2075.11 362.176V395.296H2139.91V438.208H2075.11V474.784H2148.55V520H2018.66V316.96H2148.55V362.176H2075.11ZM2329.37 316.96V361.888H2275.22V520H2218.78V361.888H2165.21V316.96H2329.37Z" fill="url(#paint3_linear)"/>
<defs>
<linearGradient id="paint0_linear" x1="453.063" y1="695.988" x2="523.769" y2="823.1" gradientUnits="userSpaceOnUse">
<stop stop-color="#001AFF"/>
<stop offset="1" stop-color="#FF0000"/>
</linearGradient>
<linearGradient id="paint1_linear" x1="721.415" y1="546.719" x2="792.12" y2="673.831" gradientUnits="userSpaceOnUse">
<stop stop-color="#001AFF"/>
<stop offset="1" stop-color="#FF0000"/>
</linearGradient>
<linearGradient id="paint2_linear" x1="304.393" y1="169.317" x2="544.009" y2="600.09" gradientUnits="userSpaceOnUse">
<stop stop-color="#001AFF"/>
<stop offset="1" stop-color="#FF0000"/>
</linearGradient>
<linearGradient id="paint3_linear" x1="1167.5" y1="419" x2="2203.5" y2="560.5" gradientUnits="userSpaceOnUse">
<stop stop-color="#001AFF"/>
<stop offset="1" stop-color="#FF0000"/>
</linearGradient>
</defs>
</svg>
